# xmcd
#
# Track frame offsets: 
#        150
#        12315
#        24895
#        37238
#        50588
#        61141
#        71371
#        85576
#        96929
#        110466
#        124659
#        135235
#        147157
#        160343
#        172972
#
# Disc length: 2519 seconds
#
# Revision: 0
# Processed by: cddbd v1.5.2PL0 Copyright (c) Steve Scherf et al.
# Submitted via: ExactAudioCopy v0.95b4
#
DISCID=bd09d50f
DTITLE=Ray Charles - The Best of Ray Charles - CD2
DYEAR=2006
DGENRE=Blues
TTITLE0=Mess Around
TTITLE1=Heartbreaker
TTITLE2=It Should've Been Me
TTITLE3=Don't You Know
TTITLE4=Blackjack
TTITLE5=Sittin'On Top Of The World
TTITLE6=Kiss Me Baby
TTITLE7=Confession Blues
TTITLE8=Baby Let Me Hold Your Hand
TTITLE9=Someday
TTITLE10=The Ego Song
TTITLE11=I Love You, I Love You
TTITLE12=Alone In The City
TTITLE13=Can Anyone Ask For More?
TTITLE14=Let Me Hear You Call My Name
EXTD=
EXTT0=
EXTT1=
EXTT2=
EXTT3=
EXTT4=
EXTT5=
EXTT6=
EXTT7=
EXTT8=
EXTT9=
EXTT10=
EXTT11=
EXTT12=
EXTT13=
EXTT14=
PLAYORDER=
